:SAMPLES-PER-SECOND 30
:FULLY-SPECIFIED
:DEGREES
196
root  8.93644423 40.18044359 -1.459968935 -1.843002319 -34.6230011 0.5690002441
lowerback  9.509960175 2.348839998 -4.685890198
upperback  6.103240013 2.666110039 -0.990301013
thorax  0.8579819798 1.186429977 1.369099975
lowerneck  -0.4893139899 5.549449921 -4.501170158
upperneck  18.51959991 6.981309891 4.29005003
head  5.331240177 3.313580036 2.390820026
lclavicle  0 -9.442270133e-015 7.951389973e-016
lhumerus  15.51360035 -10.89999962 76.44080353
lradius  2.015463436e-031 -2.899439804e-031 124.8040009
lwrist  -7.062250077e-031 -0 24.1371994
lhand  -1.496451383e-031 -27.76390076 20.11240005
lfingers  90 7.125020027 -90
lthumb  89.89689403 5.08795885 91.16245106
rclavicle  0 -9.442270133e-015 7.951389973e-016
rhumerus  29.44249916 16.24010086 -81.63860321
rradius  -1.566417988e-031 3.164676717e-031 116.3339996
rwrist  7.062250077e-031 2.648343779e-031 -39.60620117
rhand  -7.920061211e-032 -33.2840004 9.303460121
rfingers  -90 -7.125020027 -90
rthumb  -92.93752616 -24.25625642 -97.11982154
rfemur  -22.94750023 18.12000084 1.335680008
rtibia  -0 0 39.06560135
rfoot  -4.474998404e-032 -9.478269577 1.627599955
rtoes  5.373923086 19.29304026 -105.8922705
lfemur  -15.89089966 -4.668190002 -5.535049915
ltibia  -0 0 52.80699921
lfoot  -0 -5.623980045 12.39480019
ltoes  -4.250644065 -19.5611806 -102.515957
197
root  8.93822242 40.34422326 -1.517557816 -1.526992798 -36.27799988 0.4510040283
lowerback  9.521209717 2.340749979 -4.764810085
upperback  5.987979889 2.643429995 -0.8513789773
thorax  0.7231280208 1.174329996 1.555879951
lowerneck  -0.7549870014 5.842020035 -4.289669991
upperneck  18.38339996 7.512609959 3.419250011
head  5.359749794 3.530519962 2.113130093
lclavicle  0 -9.442270133e-015 7.951389973e-016
lhumerus  16.53089905 -9.1519804 74.86329651
lradius  2.038525497e-031 -2.883272071e-031 125.2610016
lwrist  -1.412450015e-030 1.324171889e-031 24.67830086
lhand  -1.496451383e-031 -27.76390076 20.11240005
lfingers  90 7.125020027 -90
lthumb  89.89689403 5.08795885 91.16245106
rclavicle  0 -9.442270133e-015 7.951389973e-016
rhumerus  29.41349983 17.33950043 -81.21459961
rradius  -1.554753094e-031 3.170423766e-031 116.1230011
rwrist  7.062250077e-031 -8.827812596e-032 -39.3260994
rhand  -7.920061211e-032 -33.2840004 9.303460121
rfingers  -90 -7.125020027 -90
rthumb  -92.93752616 -24.25625642 -97.11982154
rfemur  -23.49690056 18.3628006 1.46607995
rtibia  -0 0 38.49629974
rfoot  -4.477031007e-032 -9.632829666 1.872570038
rtoes  5.373923086 19.29304026 -105.8922705
lfemur  -16.05719948 -4.210830212 -5.8822999
ltibia  -0 0 53.54550171
lfoot  -0 -5.255929947 8.744709969
ltoes  -4.250644065 -19.5611806 -102.515957
198
root  8.941822352 40.45622217 -1.579924456 -1.152999878 -37.90100098 0.125
lowerback  9.726610184 2.30824995 -4.811450005
upperback  5.773570061 2.578739882 -0.5726730227
thorax  0.3766370118 1.147099972 1.864359975
lowerneck  -0.9665510058 6.169509888 -4.094200134
upperneck  18.45100021 8.087080002 2.545629978
head  5.446280003 3.761250019 1.844900012
lclavicle  0 -9.442270133e-015 7.951389973e-016
lhumerus  17.40530014 -7.277810097 73.39849854
lradius  2.059405798e-031 -2.868395334e-031 125.677002
lwrist  -7.062250077e-031 8.827812596e-032 25.24710083
lhand  -1.496451383e-031 -27.76390076 20.11240005
lfingers  90 7.125020027 -90
lthumb  89.89689403 5.08795885 91.16245106
rclavicle  0 -9.442270133e-015 7.951389973e-016
rhumerus  29.31450081 18.50900078 -80.6344986
rradius  -1.547333899e-031 3.174051329e-031 115.9889984
rwrist  0 2.648343779e-031 -39.00180054
rhand  -7.920061211e-032 -33.2840004 9.303460121
rfingers  -90 -7.125020027 -90
rthumb  -92.93752616 -24.25625642 -97.11982154
rfemur  -24.03280067 18.58690071 1.872840047
rtibia  -0 0 38.42750168
rfoot  -5.606832677e-032 -10.24820042 1.367879987
rtoes  5.373923086 19.29304026 -105.8922705
lfemur  -16.31209946 -3.386660099 -6.070040226
ltibia  -0 0 54.56629944
lfoot  4.43063045e-032 -4.979819775 5.086599827
ltoes  -4.250644065 -19.5611806 -102.515957
199
root  8.948399701 40.52288926 -1.644493276 -0.8800048828 -39.34899902 -0.1269989014
lowerback  9.840310097 2.214639902 -4.664979935
upperback  5.643270016 2.455709934 -0.4813080132
thorax  0.1877530068 1.093199968 1.882850051
lowerneck  -1.01809001 6.430079937 -3.761290073
upperneck  18.38089943 8.535840034 1.782709956
head  5.471980095 3.948570013 1.576140046
lclavicle  0 -9.442270133e-015 7.951389973e-016
lhumerus  18.52860069 -5.684010029 71.7233963
lradius  2.061857928e-031 -2.866633203e-031 125.7259979
lwrist  -7.062250077e-031 2.206953149e-031 25.27899933
lhand  -1.496451383e-031 -27.76390076 20.11240005
lfingers  90 7.125020027 -90
lthumb  89.89689403 5.08795885 91.16245106
rclavicle  0 -9.442270133e-015 7.951389973e-016
rhumerus  29.35580063 19.50939941 -80.30879974
rradius  -1.537687812e-031 3.178735634e-031 115.8150024
rwrist  0 -0 -38.61460114
rhand  -7.920061211e-032 -33.2840004 9.303460121
rfingers  -90 -7.125020027 -90
rthumb  -92.93752616 -24.25625642 -97.11982154
rfemur  -24.4375 18.34119987 2.361619949
rtibia  -0 0 38.84149933
rfoot  -4.765122379e-032 -11.3132 -0.002123120008
rtoes  5.373923086 19.29304026 -105.8922705
lfemur  -16.67160034 -2.389849901 -6.403369904
ltibia  -0 0 55.8423996
lfoot  4.428162325e-032 -4.598770142 2.108040094
ltoes  -4.250644065 -19.5611806 -102.515957
